<svg xmlns="http://www.w3.org/2000/svg" viewBox="0 0 32 32">
  <!-- Soft sand background -->
  <circle cx="16" cy="16" r="15" fill="#E6D5AC"/>

  <!-- Calm sea waves at bottom -->
  <path d="M1 22 Q8 20 16 22 Q24 24 31 22 L31 31 L1 31 Z" fill="#2F8D8D" opacity="0.8"/>
  <path d="M1 25 Q8 23 16 25 Q24 27 31 25 L31 31 L1 31 Z" fill="#3A9E9E" opacity="0.9"/>

  <!-- Cooling tower silhouette (hyperbolic shape) -->
  <path d="M11 20
           Q10 15 12 12
           Q14 9 16 8
           Q18 9 20 12
           Q22 15 21 20
           Z"
        fill="#4A5568" stroke="#2D3748" stroke-width="0.5"/>

  <!-- Tower top rim -->
  <ellipse cx="16" cy="8" rx="4" ry="1.2" fill="#5A6A7A" stroke="#2D3748" stroke-width="0.3"/>

  <!-- Steam/vapor from tower -->
  <ellipse cx="14" cy="5.5" rx="2" ry="1.2" fill="#fff" opacity="0.5"/>
  <ellipse cx="17" cy="4" rx="2.5" ry="1.5" fill="#fff" opacity="0.4"/>
  <ellipse cx="15" cy="3" rx="1.5" ry="1" fill="#fff" opacity="0.3"/>

  <!-- Subtle glow at tower base (reactor heat) -->
  <ellipse cx="16" cy="19" rx="3" ry="1" fill="#F6AD55" opacity="0.4"/>
</svg>
